# xmcd CD database file
#
# Track frame offsets:
#	150
#	22377
#	47680
#	68237
#	88690
#	109450
#	129665
#
# Disc length: 2311 seconds
#
# Revision: 0
# Processed by: cddbd v1.5.2PL0 Copyright (c) Steve Scherf et al.
# Submitted via: CDex 1.70beta2
#
DISCID=66090507
DTITLE=Sonny Stitt - Tune-Up!
DYEAR=1972
DGENRE=Jazz
TTITLE0=Tune-Up
TTITLE1=I Can't Get Started
TTITLE2=Idaho
TTITLE3=Just Friends
TTITLE4=Blues for Prez and Bird
TTITLE5=Groovin' High
TTITLE6=I Got Rhythm
EXTD=YEAR: 1972
EXTT0=
EXTT1=
EXTT2=
EXTT3=
EXTT4=
EXTT5=
EXTT6=
PLAYORDER=
